<svg width="14" height="11" viewBox="0 0 14 11" fill="none" xmlns="http://www.w3.org/2000/svg">
<path d="M13.1091 0.125977H0.890909C0.654625 0.125977 0.428019 0.21984 0.260941 0.386918C0.0938634 0.553996 0 0.780602 0 1.01689V9.16234C0 9.39862 0.0938634 9.62523 0.260941 9.79231C0.428019 9.95939 0.654625 10.0532 0.890909 10.0532H13.1091C13.3454 10.0532 13.572 9.95939 13.7391 9.79231C13.9061 9.62523 14 9.39862 14 9.16234V1.01689C14 0.780602 13.9061 0.553996 13.7391 0.386918C13.572 0.21984 13.3454 0.125977 13.1091 0.125977ZM0.890909 0.889613H13.1091C13.1428 0.889613 13.1752 0.903022 13.1991 0.92689C13.223 0.950758 13.2364 0.983131 13.2364 1.01689V2.67143H0.763636V1.01689C0.763636 0.983131 0.777045 0.950758 0.800914 0.92689C0.824782 0.903022 0.857154 0.889613 0.890909 0.889613ZM13.1091 9.28961H0.890909C0.857154 9.28961 0.824782 9.2762 0.800914 9.25234C0.777045 9.22847 0.763636 9.19609 0.763636 9.16234V3.43507H13.2364V9.16234C13.2364 9.19609 13.223 9.22847 13.1991 9.25234C13.1752 9.2762 13.1428 9.28961 13.1091 9.28961ZM11.9636 7.63507C11.9636 7.73633 11.9234 7.83345 11.8518 7.90505C11.7802 7.97666 11.6831 8.01689 11.5818 8.01689H9.54545C9.44419 8.01689 9.34707 7.97666 9.27547 7.90505C9.20386 7.83345 9.16364 7.73633 9.16364 7.63507C9.16364 7.5338 9.20386 7.43669 9.27547 7.36508C9.34707 7.29348 9.44419 7.25325 9.54545 7.25325H11.5818C11.6831 7.25325 11.7802 7.29348 11.8518 7.36508C11.9234 7.43669 11.9636 7.5338 11.9636 7.63507ZM7.89091 7.63507C7.89091 7.73633 7.85068 7.83345 7.77908 7.90505C7.70747 7.97666 7.61036 8.01689 7.50909 8.01689H6.49091C6.38964 8.01689 6.29253 7.97666 6.22092 7.90505C6.14932 7.83345 6.10909 7.73633 6.10909 7.63507C6.10909 7.5338 6.14932 7.43669 6.22092 7.36508C6.29253 7.29348 6.38964 7.25325 6.49091 7.25325H7.50909C7.61036 7.25325 7.70747 7.29348 7.77908 7.36508C7.85068 7.43669 7.89091 7.5338 7.89091 7.63507Z" fill="#707070"/>
</svg>
