<svg width="16" height="19" viewBox="0 0 16 19" fill="none" xmlns="http://www.w3.org/2000/svg">
<path d="M8 0.557617C4.13542 0.557617 1 3.10013 1 6.23159C1 9.83476 5.66667 15.5448 7.38021 17.517C7.45134 17.6002 7.54456 17.668 7.65227 17.7147C7.75999 17.7614 7.87914 17.7857 8 17.7857C8.12086 17.7857 8.24001 17.7614 8.34773 17.7147C8.45544 17.668 8.54866 17.6002 8.61979 17.517C10.3333 15.5456 15 9.83766 15 6.23159C15 3.10013 11.8646 0.557617 8 0.557617Z" stroke="#707070" stroke-linecap="round" stroke-linejoin="round"/>
<path d="M8.00033 8.50961C9.28899 8.50961 10.3337 7.61957 10.3337 6.52165C10.3337 5.42373 9.28899 4.53369 8.00033 4.53369C6.71166 4.53369 5.66699 5.42373 5.66699 6.52165C5.66699 7.61957 6.71166 8.50961 8.00033 8.50961Z" stroke="#707070" stroke-linecap="round" stroke-linejoin="round"/>
</svg>
