<svg width="25" height="25" viewBox="0 0 25 25" fill="none" xmlns="http://www.w3.org/2000/svg">
<circle cx="12.5" cy="12.5" r="12.5" fill="#00ADEF" fill-opacity="0.24"/>
<path fill-rule="evenodd" clip-rule="evenodd" d="M7.93917 11.878L9.4587 10.3587C9.61037 10.207 9.8574 10.207 10.0091 10.3587L12.0648 12.4144C12.2164 12.5661 12.4635 12.5661 12.6151 12.4144L18.3885 6.64128C18.5402 6.48984 18.7874 6.48984 18.9386 6.64128L20.4577 8.16081C20.6096 8.31248 20.6094 8.55951 20.4577 8.71118L14.4096 14.7593L12.6151 16.554C12.4635 16.7057 12.2164 16.7057 12.0648 16.554L10.2701 14.76L7.93917 12.4281C7.7875 12.2767 7.7875 12.0297 7.93917 11.878ZM12.7536 5.34937C14.2946 5.34937 15.7245 5.82567 16.9045 6.63844C16.9681 6.68221 17.0053 6.74562 17.0121 6.82276C17.0192 6.89966 16.9941 6.96875 16.9395 7.02341L16.214 7.74863C16.1296 7.83334 16.0008 7.8473 15.9 7.78223C14.9931 7.19779 13.913 6.85849 12.7536 6.85849C11.1472 6.85849 9.69295 7.50965 8.64073 8.56187C7.58827 9.61433 6.93711 11.0686 6.93711 12.6747C6.93711 14.2808 7.58827 15.7351 8.64073 16.7875C9.69295 17.84 11.1472 18.4909 12.7536 18.4909C14.3597 18.4909 15.8139 17.84 16.8661 16.7875C17.9186 15.7351 18.5698 14.2808 18.5698 12.6747C18.5698 12.3995 18.5504 12.1288 18.5134 11.8638C18.5023 11.7829 18.5272 11.7088 18.5847 11.6511L19.4429 10.7929C19.5089 10.7271 19.5983 10.7037 19.6882 10.7285C19.7779 10.7534 19.8425 10.8199 19.8647 10.9105C20.0046 11.4755 20.0786 12.0664 20.0786 12.6747C20.0786 16.7203 16.7992 20 12.7536 20C8.70769 20 5.42822 16.7203 5.42822 12.6747C5.42822 8.62907 8.70769 5.34937 12.7536 5.34937Z" fill="#00ADEF"/>
</svg>
