<svg width="14" height="15" viewBox="0 0 14 15" fill="none" xmlns="http://www.w3.org/2000/svg">
<path d="M12.87 11.832V5.90252C13.1215 5.89335 13.3633 5.80308 13.5592 5.64519C13.7552 5.48731 13.8948 5.27028 13.9572 5.02651C14.0271 4.77783 14.011 4.51286 13.9117 4.27442C13.8123 4.03599 13.6355 3.83801 13.4097 3.7125L7.5827 0.349255C7.40476 0.249286 7.2041 0.196777 7 0.196777C6.7959 0.196777 6.59524 0.249286 6.4173 0.349255L0.590279 3.7125C0.364517 3.83801 0.187672 4.03599 0.0883232 4.27442C-0.0110254 4.51286 -0.0270729 4.77783 0.0427742 5.02651C0.106868 5.27819 0.253354 5.50118 0.45889 5.65993C0.664426 5.81869 0.917186 5.90409 1.17689 5.90252H1.27857V11.8234H1.18471C0.873555 11.8234 0.57514 11.947 0.355118 12.167C0.135096 12.3871 0.0114882 12.6855 0.0114882 12.9966C0.0114882 13.3078 0.135096 13.6062 0.355118 13.8262C0.57514 14.0462 0.873555 14.1698 1.18471 14.1698H12.8153C13.1092 14.1525 13.3859 14.0252 13.5903 13.8134C13.7948 13.6015 13.9121 13.3205 13.919 13.0261C13.9259 12.7318 13.8219 12.4456 13.6276 12.2244C13.4332 12.0032 13.1628 11.8631 12.87 11.832ZM1.17689 5.12037C1.09069 5.11927 1.00721 5.09 0.939197 5.03701C0.871185 4.98403 0.822375 4.91025 0.800217 4.82694C0.778058 4.74362 0.783767 4.65534 0.816473 4.57558C0.849179 4.49581 0.907085 4.42893 0.981354 4.38515L6.80837 1.03051C6.86619 0.995596 6.93246 0.977144 7 0.977144C7.06754 0.977144 7.1338 0.995596 7.19163 1.03051L13.0226 4.38515C13.1 4.42686 13.1611 4.49344 13.196 4.57415C13.2309 4.65485 13.2376 4.74496 13.215 4.82994C13.1924 4.91492 13.1418 4.9898 13.0714 5.04249C13.001 5.09519 12.9149 5.12263 12.827 5.12037H1.17689ZM12.0879 5.90252V11.8234H9.26824V5.90252H12.0879ZM8.48217 5.90252V11.8234H5.65861V5.90252H8.48217ZM4.87646 5.90252V11.8234H2.06072V5.90252H4.87646ZM12.8153 13.3877H1.18471C1.08099 13.3877 0.981523 13.3465 0.908182 13.2732C0.834841 13.1998 0.793638 13.1003 0.793638 12.9966C0.793638 12.8929 0.834841 12.7934 0.908182 12.7201C0.981523 12.6468 1.08099 12.6055 1.18471 12.6055H12.8153C12.919 12.6055 13.0185 12.6468 13.0918 12.7201C13.1652 12.7934 13.2064 12.8929 13.2064 12.9966C13.2064 13.1003 13.1652 13.1998 13.0918 13.2732C13.0185 13.3465 12.919 13.3877 12.8153 13.3877Z" fill="#707070"/>
</svg>
