<svg width="25" height="25" viewBox="0 0 25 25" fill="none" xmlns="http://www.w3.org/2000/svg">
<circle cx="12.5" cy="12.5" r="12.5" fill="#C2EBFB"/>
<path d="M14.3482 10.6111L11.3696 7.40123C11.0717 7.08024 11.0717 6.56173 11.3696 6.24074C11.6674 5.91975 12.1715 5.91975 12.4465 6.24074L15.425 9.4753C15.7229 9.79628 15.7229 10.3395 15.425 10.6358C15.1501 10.9321 14.646 10.9568 14.3482 10.6111Z" fill="#009BD6"/>
<path d="M11.6674 14.6851C11.3695 15.0061 10.8883 15.0061 10.5905 14.6851L7.58899 11.4505C7.29113 11.1296 7.29113 10.611 7.58899 10.2901C7.88685 9.96907 8.39092 9.96907 8.66586 10.2901L11.6445 13.5246C11.9881 13.8456 11.9652 14.3641 11.6674 14.6851Z" fill="#009BD6"/>
<path d="M14.0503 11.0061L12.0111 13.2036C12.0111 13.1789 11.9882 13.1789 11.9882 13.1789L9.00961 9.96904L8.9867 9.94435L11.0259 7.74683L11.0488 7.77152L14.0274 10.9814C14.0274 10.9814 14.0503 10.9814 14.0503 11.0061Z" fill="#009BD6"/>
<path d="M13.9128 11.8457L19.343 17.3765C19.7555 17.7963 19.7555 18.4877 19.3659 18.9074C18.9535 19.3518 18.312 19.3272 17.9454 18.8827L12.8131 13.0062L13.9128 11.8457Z" fill="#009BD6"/>
<path d="M12.3319 17.5986V18.0431H12.6527C13.0193 18.0431 13.3171 18.364 13.3171 18.7591V19.4011H5.45825V18.7591C5.45825 18.364 5.75611 18.0431 6.12271 18.0431H6.44348V17.5986C6.44348 17.2036 6.74134 16.8826 7.10793 16.8826H11.6675C12.0341 16.8826 12.3319 17.2036 12.3319 17.5986Z" fill="#009BD6"/>
<path d="M5.22897 19.9197H13.5919C13.7294 19.9197 13.821 20.0184 13.821 20.1666C13.821 20.3147 13.7294 20.4135 13.5919 20.4135H5.22897C5.09149 20.4135 4.99985 20.3147 4.99985 20.1666C4.99985 20.0184 5.09149 19.9197 5.22897 19.9197Z" fill="#009BD6"/>
</svg>
