<svg width="14" height="15" viewBox="0 0 14 15" fill="none" xmlns="http://www.w3.org/2000/svg">
<path d="M13.764 1.88073C13.7044 1.40451 13.4735 0.966247 13.1145 0.647754C12.7555 0.329261 12.2928 0.152301 11.8129 0.149902H2.18713C1.70839 0.152052 1.24671 0.327908 0.88786 0.644797C0.529008 0.961687 0.297384 1.39807 0.236021 1.87286L0 3.8161C0.00031257 4.19737 0.0818667 4.5742 0.23923 4.92149C0.396593 5.26877 0.626152 5.57854 0.912616 5.83015V12.2499C0.912616 12.7716 1.11984 13.2718 1.48869 13.6407C1.85755 14.0096 2.35782 14.2168 2.87946 14.2168H11.1166C11.6382 14.2168 12.1385 14.0096 12.5074 13.6407C12.8762 13.2718 13.0835 12.7716 13.0835 12.2499V5.83015C13.3706 5.5789 13.6009 5.2693 13.759 4.92199C13.917 4.57469 13.9992 4.19767 14 3.8161L13.764 1.88073ZM8.57938 13.43H5.43243V10.2201C5.43243 9.90716 5.55676 9.607 5.77807 9.38568C5.99938 9.16437 6.29955 9.04004 6.61253 9.04004H7.39927C7.71225 9.04004 8.01242 9.16437 8.23373 9.38568C8.45504 9.607 8.57938 9.90716 8.57938 10.2201V13.43ZM12.3006 12.2499C12.3006 12.5629 12.1763 12.8631 11.955 13.0844C11.7337 13.3057 11.4335 13.43 11.1205 13.43H9.36611V10.2201C9.36611 9.69851 9.15889 9.19823 8.79004 8.82938C8.42118 8.46052 7.92091 8.2533 7.39927 8.2533H6.61253C6.09089 8.2533 5.59062 8.46052 5.22176 8.82938C4.85291 9.19823 4.64569 9.69851 4.64569 10.2201V13.43H2.87946C2.56648 13.43 2.26631 13.3057 2.045 13.0844C1.82369 12.8631 1.69935 12.5629 1.69935 12.2499V6.29432C2.0089 6.42099 2.34045 6.48516 2.67491 6.48314C3.06111 6.48494 3.443 6.40204 3.7937 6.24028C4.14439 6.07853 4.45536 5.84185 4.70469 5.54692C4.74022 5.51156 4.78831 5.49171 4.83844 5.49171C4.88857 5.49171 4.93665 5.51156 4.97218 5.54692C5.22152 5.84185 5.53249 6.07853 5.88318 6.24028C6.23387 6.40204 6.61577 6.48494 7.00197 6.48314C7.38985 6.48479 7.77343 6.40189 8.12602 6.2402C8.4786 6.07852 8.79171 5.84194 9.04355 5.54692C9.05963 5.5296 9.07911 5.51577 9.10076 5.5063C9.12242 5.49682 9.14579 5.49191 9.16943 5.49185C9.19426 5.49171 9.21887 5.4965 9.24183 5.50595C9.2648 5.51541 9.28565 5.52933 9.30318 5.54692C9.55251 5.84185 9.86348 6.07853 10.2142 6.24028C10.5649 6.40204 10.9468 6.48494 11.333 6.48314C11.6649 6.48516 11.9938 6.42097 12.3006 6.29432V12.2499ZM11.333 5.6964C11.0613 5.69767 10.7925 5.63994 10.5453 5.5272C10.2981 5.41446 10.0783 5.2494 9.9011 5.04341C9.81252 4.93754 9.7018 4.85237 9.57675 4.79392C9.45169 4.73547 9.31534 4.70516 9.1773 4.70511H9.16943C9.03196 4.70387 8.89588 4.73282 8.77082 4.78991C8.64575 4.84701 8.53475 4.93086 8.44563 5.03554C8.26315 5.23457 8.04128 5.39349 7.7941 5.5022C7.54693 5.61092 7.27986 5.66705 7.00983 5.66705C6.73981 5.66705 6.47274 5.61092 6.22556 5.5022C5.97839 5.39349 5.75652 5.23457 5.57404 5.03554C5.48249 4.93174 5.3699 4.8486 5.24375 4.79166C5.1176 4.73471 4.98078 4.70526 4.84237 4.70526C4.70396 4.70526 4.56714 4.73471 4.44099 4.79166C4.31484 4.8486 4.20225 4.93174 4.11071 5.03554C3.8624 5.32529 3.53229 5.53319 3.1637 5.63196C2.79511 5.73072 2.40528 5.71573 2.04536 5.58895C1.68545 5.46217 1.37228 5.22953 1.14696 4.92157C0.921638 4.6136 0.794699 4.24471 0.782804 3.86331L1.01883 1.97513C1.05618 1.68979 1.19539 1.42756 1.41079 1.23673C1.6262 1.0459 1.9033 0.939327 2.19106 0.93664H11.8129C12.1014 0.936479 12.3801 1.04206 12.5961 1.23342C12.8121 1.42477 12.9505 1.68865 12.9851 1.97513L13.2133 3.83184C13.2087 4.32834 13.0081 4.80293 12.6552 5.15218C12.3022 5.50143 11.8256 5.69705 11.329 5.6964H11.333Z" fill="#707070"/>
</svg>
