<svg width="14" height="14" viewBox="0 0 14 14" fill="none" xmlns="http://www.w3.org/2000/svg">
<path d="M13.125 1.31162L9.62194 1.31163V0.439697C9.62194 0.197978 9.42616 0.00219727 9.18444 0.00219727C8.94272 0.00219727 8.74694 0.197978 8.74694 0.439697V1.31142H5.24694V0.439697C5.24694 0.197978 5.05116 0.00219727 4.80944 0.00219727C4.56772 0.00219727 4.37194 0.197978 4.37194 0.439697V1.31142H0.875C0.391781 1.31142 0 1.7032 0 2.18642V13.1239C0 13.6071 0.391781 13.9989 0.875 13.9989H13.125C13.6082 13.9989 14 13.6071 14 13.1239V2.18642C14 1.7034 13.6082 1.31162 13.125 1.31162ZM13.125 13.1239H0.875V2.18642H4.37194V2.6272C4.37194 2.8689 4.56772 3.0647 4.80944 3.0647C5.05116 3.0647 5.24694 2.8689 5.24694 2.6272V2.18663H8.74694V2.62742C8.74694 2.86913 8.94272 3.06492 9.18444 3.06492C9.42616 3.06492 9.62194 2.86913 9.62194 2.62742V2.18663H13.125V13.1239ZM10.0625 6.99912H10.9375C11.179 6.99912 11.375 6.80312 11.375 6.56162V5.68662C11.375 5.44512 11.179 5.24912 10.9375 5.24912H10.0625C9.821 5.24912 9.625 5.44512 9.625 5.68662V6.56162C9.625 6.80312 9.821 6.99912 10.0625 6.99912ZM10.0625 10.4989H10.9375C11.179 10.4989 11.375 10.3031 11.375 10.0614V9.1864C11.375 8.9449 11.179 8.7489 10.9375 8.7489H10.0625C9.821 8.7489 9.625 8.9449 9.625 9.1864V10.0614C9.625 10.3033 9.821 10.4989 10.0625 10.4989ZM7.4375 8.7489H6.5625C6.321 8.7489 6.125 8.9449 6.125 9.1864V10.0614C6.125 10.3031 6.321 10.4989 6.5625 10.4989H7.4375C7.679 10.4989 7.875 10.3031 7.875 10.0614V9.1864C7.875 8.94512 7.679 8.7489 7.4375 8.7489ZM7.4375 5.24912H6.5625C6.321 5.24912 6.125 5.44512 6.125 5.68662V6.56162C6.125 6.80312 6.321 6.99912 6.5625 6.99912H7.4375C7.679 6.99912 7.875 6.80312 7.875 6.56162V5.68662C7.875 5.4449 7.679 5.24912 7.4375 5.24912ZM3.9375 5.24912H3.0625C2.821 5.24912 2.625 5.44512 2.625 5.68662V6.56162C2.625 6.80312 2.821 6.99912 3.0625 6.99912H3.9375C4.179 6.99912 4.375 6.80312 4.375 6.56162V5.68662C4.375 5.4449 4.179 5.24912 3.9375 5.24912ZM3.9375 8.7489H3.0625C2.821 8.7489 2.625 8.9449 2.625 9.1864V10.0614C2.625 10.3031 2.821 10.4989 3.0625 10.4989H3.9375C4.179 10.4989 4.375 10.3031 4.375 10.0614V9.1864C4.375 8.94512 4.179 8.7489 3.9375 8.7489Z" fill="#707070"/>
</svg>
