<svg width="14" height="15" viewBox="0 0 14 15" fill="none" xmlns="http://www.w3.org/2000/svg">
<path d="M13.3997 9.68251L10.0253 8.17031C9.87246 8.1048 9.70564 8.07846 9.54 8.09368C9.37436 8.1089 9.21514 8.16519 9.07674 8.25746C9.0627 8.26647 9.04933 8.2765 9.03674 8.28746L7.27311 9.78751C7.25481 9.79749 7.23444 9.80307 7.21361 9.80381C7.19278 9.80456 7.17207 9.80044 7.15311 9.7918C6.0195 9.24463 4.84517 8.07745 4.29587 6.95956C4.28672 6.94088 4.28196 6.92035 4.28196 6.89956C4.28196 6.87876 4.28672 6.85823 4.29587 6.83955L5.80092 5.05378C5.81172 5.04057 5.82173 5.02673 5.83092 5.01235C5.92191 4.87342 5.97688 4.71402 5.99084 4.54853C6.00481 4.38304 5.97734 4.21668 5.91092 4.06446L4.40944 0.695776C4.32417 0.496918 4.17671 0.331079 3.98919 0.223149C3.80166 0.115219 3.58419 0.0710191 3.36941 0.097184C2.43597 0.2199 1.57914 0.678302 0.959057 1.38673C0.338971 2.09515 -0.00194841 3.00513 8.37698e-06 3.9466C8.37698e-06 9.53964 4.55016 14.0898 10.1432 14.0898C11.0846 14.0916 11.9945 13.7506 12.7029 13.1306C13.4113 12.5105 13.8698 11.6538 13.9926 10.7204C14.0187 10.5066 13.9751 10.2901 13.8683 10.1031C13.7615 9.91612 13.5972 9.7686 13.3997 9.68251ZM10.1432 13.2326C5.02303 13.2326 0.85718 9.06677 0.85718 3.9466C0.854792 3.21367 1.11933 2.50494 1.60138 1.95282C2.08343 1.40071 2.75 1.04299 3.47655 0.946498H3.49298C3.52177 0.947036 3.54972 0.956258 3.57317 0.972956C3.59663 0.989654 3.61449 1.01305 3.62442 1.04007L5.13161 4.40519C5.14021 4.42389 5.14466 4.44424 5.14466 4.46483C5.14466 4.48542 5.14021 4.50577 5.13161 4.52448L3.6237 6.31454C3.61245 6.32731 3.60218 6.34093 3.59299 6.35525C3.49863 6.4993 3.44307 6.66527 3.43168 6.83709C3.42029 7.00891 3.45346 7.18076 3.52798 7.336C4.16158 8.63319 5.46876 9.93037 6.78024 10.564C6.93638 10.6381 7.10907 10.6704 7.28146 10.6579C7.45384 10.6454 7.62004 10.5884 7.76384 10.4925C7.77741 10.4832 7.79098 10.4732 7.80384 10.4625L9.56676 8.96248C9.58417 8.95313 9.6034 8.94765 9.62312 8.94641C9.64285 8.94518 9.66261 8.94822 9.68105 8.95534L13.0562 10.4675C13.0837 10.4793 13.1069 10.4994 13.1224 10.525C13.1379 10.5507 13.145 10.5805 13.1426 10.6104C13.0466 11.3373 12.6892 12.0044 12.1372 12.4869C11.5852 12.9695 10.8764 13.2346 10.1432 13.2326Z" fill="#707070"/>
</svg>
