<svg width="14" height="12" viewBox="0 0 14 12" fill="none" xmlns="http://www.w3.org/2000/svg">
<path d="M12.2386 0.26709H1.76145C1.29428 0.26709 0.846253 0.452671 0.515917 0.783006C0.185581 1.11334 0 1.56137 0 2.02854V9.68732C0 10.1545 0.185581 10.6025 0.515917 10.9329C0.846253 11.2632 1.29428 11.4488 1.76145 11.4488H12.2386C12.7057 11.4488 13.1537 11.2632 13.4841 10.9329C13.8144 10.6025 14 10.1545 14 9.68732V2.02854C14 1.56137 13.8144 1.11334 13.4841 0.783006C13.1537 0.452671 12.7057 0.26709 12.2386 0.26709ZM1.76145 0.97167H12.2386C12.5052 0.970901 12.7622 1.07173 12.9572 1.25365C13.1522 1.43557 13.2706 1.68493 13.2884 1.95104C11.5481 2.88108 9.80071 3.80408 8.05335 4.73413C7.81695 4.88227 7.56685 5.00732 7.30649 5.10755C7.1021 5.14789 6.89146 5.14425 6.68858 5.09687C6.4857 5.04949 6.29523 4.95946 6.12985 4.83277C5.12934 4.30433 4.12884 3.76885 3.13538 3.24042C2.33216 2.81767 1.51485 2.38788 0.711626 1.95808C0.727966 1.69085 0.845724 1.43993 1.04084 1.2566C1.23596 1.07327 1.49371 0.97135 1.76145 0.97167ZM13.2954 9.68732C13.2954 9.96762 13.1841 10.2364 12.9859 10.4346C12.7877 10.6328 12.5189 10.7442 12.2386 10.7442H1.76145C1.48115 10.7442 1.21233 10.6328 1.01413 10.4346C0.815928 10.2364 0.70458 9.96762 0.70458 9.68732V2.75778C2.36739 3.63146 4.02315 4.51923 5.68596 5.39995C5.98304 5.5821 6.30287 5.72424 6.63714 5.8227C7.12639 5.90225 7.62782 5.79945 8.0463 5.53382C9.06794 4.99834 10.0825 4.45582 11.1042 3.92034C11.8369 3.52577 12.5627 3.1453 13.2954 2.75778V9.68732Z" fill="#707070"/>
</svg>
