<svg width="14" height="13" viewBox="0 0 14 13" fill="none" xmlns="http://www.w3.org/2000/svg">
<path d="M6.00788 2.70776C5.72383 2.70776 5.49658 2.93501 5.49658 3.21907V6.49993C5.49658 6.68456 5.596 6.8692 5.76644 6.95442L7.47078 7.8492C7.54179 7.89181 7.62701 7.90601 7.71223 7.90601C7.89686 7.90601 8.0673 7.80659 8.16672 7.63615C8.29454 7.3805 8.20933 7.08224 7.95368 6.94021L6.51919 6.18746V3.21907C6.51919 2.93501 6.27774 2.70776 6.00788 2.70776Z" fill="#707070"/>
<path d="M13.3365 5.80405C13.1376 5.60521 12.811 5.60521 12.6121 5.80405L12.0014 6.42898C11.9588 3.14812 9.28866 0.492188 6.00781 0.492188C2.69854 0.492188 0 3.19073 0 6.49999C0 9.80926 2.69854 12.5078 6.00781 12.5078C6.29186 12.5078 6.51911 12.2806 6.51911 11.9965C6.51911 11.7124 6.29186 11.4852 6.00781 11.4852C3.26666 11.4852 1.03681 9.25535 1.03681 6.5142C1.03681 3.77305 3.26666 1.5432 6.00781 1.5432C8.72055 1.5432 10.9362 3.73044 10.9788 6.42898L10.3681 5.81826C10.1692 5.61942 9.84258 5.61942 9.64374 5.81826C9.4449 6.0171 9.4449 6.34376 9.64374 6.5426L11.135 8.0339C11.2345 8.13332 11.3623 8.19013 11.5043 8.19013C11.6463 8.19013 11.76 8.13332 11.8736 8.0339L13.3649 6.5426C13.5495 6.32956 13.5495 6.00289 13.3365 5.80405Z" fill="#707070"/>
<path d="M7.61282 11.1728C7.32877 11.2723 7.17254 11.5847 7.27196 11.8688C7.37138 12.1528 7.68384 12.3091 7.9679 12.2097C8.25195 12.1102 8.40818 11.7978 8.30876 11.5137C8.20934 11.2155 7.89688 11.0734 7.61282 11.1728Z" fill="#707070"/>
<path d="M9.10416 10.3349C8.86271 10.5337 8.8343 10.8746 9.01894 11.116C9.21778 11.3575 9.55865 11.3859 9.8001 11.2012C10.0415 11.0024 10.07 10.6615 9.88531 10.4201C9.70068 10.1786 9.34561 10.1502 9.10416 10.3349Z" fill="#707070"/>
<path d="M10.993 8.85771C10.7374 8.70148 10.3965 8.7867 10.2403 9.04235C10.084 9.298 10.1693 9.63887 10.4249 9.7951C10.6806 9.95133 11.0214 9.86611 11.1777 9.61046C11.3339 9.35481 11.2487 9.01394 10.993 8.85771Z" fill="#707070"/>
</svg>
