<svg width="26" height="23" viewBox="0 0 26 23" fill="none" xmlns="http://www.w3.org/2000/svg">
<path fill-rule="evenodd" clip-rule="evenodd" d="M24.9543 9.26662C24.9674 9.16881 24.9674 9.06964 24.9543 8.97183C24.9543 6.49433 22.981 4.48592 20.5468 4.48592H14.9304C14.2349 4.48592 13.6711 3.91208 13.6711 3.20423C13.6711 2.35441 13.3394 1.5394 12.749 0.938496C12.1586 0.337587 11.3578 0 10.5229 0H5.17092C2.56286 0 0.448608 2.15187 0.448608 4.80634V19.251C0.469248 21.1847 2.01167 22.7431 3.91164 22.75H19.8542C21.282 22.7434 22.5606 21.8487 23.0779 20.4942L25.7098 12.1632C25.8921 11.1314 25.6154 10.0705 24.9543 9.26662ZM2.33753 4.80634C2.33753 3.21366 3.60608 1.92254 5.17092 1.92254H10.5229C11.2184 1.92254 11.7822 2.49637 11.7822 3.20423C11.7891 4.97095 13.1945 6.40143 14.9304 6.40845H20.5971C21.6433 6.40831 22.5806 7.06641 22.952 8.06183C22.7341 8.04254 22.515 8.04254 22.2972 8.06183H6.93392C5.48303 8.06221 4.18618 8.98308 3.68497 10.3689L2.33753 13.932V4.80634ZM19.8542 20.8275C20.4922 20.8267 21.0656 20.4308 21.3023 19.8277L23.9216 11.689C23.9694 11.2572 23.8369 10.8247 23.5565 10.497C23.2428 10.124 22.7793 9.91645 22.2972 9.9331H6.93392C6.27163 9.93346 5.67924 10.3525 5.44796 10.9841L2.33753 19.3792C2.42124 20.2005 3.10029 20.8253 3.91164 20.8275H19.8542Z" fill="#555555"/>
</svg>
