<svg width="31" height="26" viewBox="0 0 31 26" fill="none" xmlns="http://www.w3.org/2000/svg">
<path fill-rule="evenodd" clip-rule="evenodd" d="M30.1676 18.2648L30.174 18.2541C30.396 17.8801 30.507 17.4634 30.507 17.0467C30.5069 16.6236 30.3925 16.2005 30.1636 15.8222L21.3229 1.20828C20.8714 0.461836 20.0427 0.00285503 19.1466 0.00285503H13.1115C28.5351 0.00270812 11.7302 0 11.7302 0C10.8341 0 10.0054 0.459047 9.55382 1.20557L0.712911 15.8223C0.255283 16.5789 0.255283 17.5144 0.712911 18.271L4.40222 24.3706L4.40918 24.3819C4.86303 25.1181 5.68576 25.57 6.57488 25.57H24.3019C25.198 25.57 26.0267 25.111 26.4782 24.3644L30.1676 18.2648ZM2.16382 16.6385L11.0047 2.02183C11.0822 1.89383 11.1928 1.79118 11.3227 1.72167L14.4654 6.91685L5.12767 22.3549L2.16382 17.4548C2.01128 17.2026 2.01128 16.8907 2.16382 16.6385ZM9.30319 18.6666H27.9799L25.0273 23.5482C24.8768 23.797 24.6006 23.95 24.3019 23.95H6.57488C6.4303 23.95 6.291 23.9142 6.16866 23.849L9.30319 18.6666ZM15.4378 8.52428L10.283 17.0467H20.5931L15.4378 8.52428ZM13.2077 1.62283L22.5378 17.0467H28.8272C28.8272 16.9057 28.7891 16.7647 28.7128 16.6386L19.8721 2.02464C19.7216 1.77582 19.4453 1.62283 19.1466 1.62283H13.2077Z" fill="#555555"/>
</svg>
