<svg width="14" height="18" viewBox="0 0 14 18" fill="none" xmlns="http://www.w3.org/2000/svg">
<path d="M10 9.67432C10 9.76272 9.96488 9.84751 9.90237 9.91002C9.83986 9.97253 9.75507 10.0077 9.66667 10.0077H4.33333C4.24493 10.0077 4.16014 9.97253 4.09763 9.91002C4.03512 9.84751 4 9.76272 4 9.67432C4 9.58591 4.03512 9.50113 4.09763 9.43861C4.16014 9.3761 4.24493 9.34098 4.33333 9.34098H9.66667C9.75507 9.34098 9.83986 9.3761 9.90237 9.43861C9.96488 9.50113 10 9.58591 10 9.67432ZM9.66667 12.0077H4.33333C4.24493 12.0077 4.16014 12.0428 4.09763 12.1053C4.03512 12.1678 4 12.2526 4 12.341C4 12.4294 4.03512 12.5142 4.09763 12.5767C4.16014 12.6392 4.24493 12.6743 4.33333 12.6743H9.66667C9.75507 12.6743 9.83986 12.6392 9.90237 12.5767C9.96488 12.5142 10 12.4294 10 12.341C10 12.2526 9.96488 12.1678 9.90237 12.1053C9.83986 12.0428 9.75507 12.0077 9.66667 12.0077ZM14 3.00765V15.6743C14 16.2932 13.7542 16.8866 13.3166 17.3242C12.879 17.7618 12.2855 18.0077 11.6667 18.0077H2.33333C1.71449 18.0077 1.121 17.7618 0.683418 17.3242C0.245833 16.8866 0 16.2932 0 15.6743V3.00765C0 2.74243 0.105357 2.48808 0.292893 2.30054C0.480429 2.11301 0.734784 2.00765 1 2.00765H2.66667V1.00765C2.66667 0.919244 2.70179 0.83446 2.7643 0.771948C2.82681 0.709435 2.91159 0.674316 3 0.674316C3.08841 0.674316 3.17319 0.709435 3.2357 0.771948C3.29821 0.83446 3.33333 0.919244 3.33333 1.00765V2.00765H6.66667V1.00765C6.66667 0.919244 6.70179 0.83446 6.7643 0.771948C6.82681 0.709435 6.91159 0.674316 7 0.674316C7.08841 0.674316 7.17319 0.709435 7.2357 0.771948C7.29821 0.83446 7.33333 0.919244 7.33333 1.00765V2.00765H10.6667V1.00765C10.6667 0.919244 10.7018 0.83446 10.7643 0.771948C10.8268 0.709435 10.9116 0.674316 11 0.674316C11.0884 0.674316 11.1732 0.709435 11.2357 0.771948C11.2982 0.83446 11.3333 0.919244 11.3333 1.00765V2.00765H13C13.2652 2.00765 13.5196 2.11301 13.7071 2.30054C13.8946 2.48808 14 2.74243 14 3.00765ZM13.3333 3.00765C13.3333 2.91924 13.2982 2.83446 13.2357 2.77195C13.1732 2.70944 13.0884 2.67432 13 2.67432H11.3333V3.67432C11.3333 3.76272 11.2982 3.84751 11.2357 3.91002C11.1732 3.97253 11.0884 4.00765 11 4.00765C10.9116 4.00765 10.8268 3.97253 10.7643 3.91002C10.7018 3.84751 10.6667 3.76272 10.6667 3.67432V2.67432H7.33333V3.67432C7.33333 3.76272 7.29821 3.84751 7.2357 3.91002C7.17319 3.97253 7.08841 4.00765 7 4.00765C6.91159 4.00765 6.82681 3.97253 6.7643 3.91002C6.70179 3.84751 6.66667 3.76272 6.66667 3.67432V2.67432H3.33333V3.67432C3.33333 3.76272 3.29821 3.84751 3.2357 3.91002C3.17319 3.97253 3.08841 4.00765 3 4.00765C2.91159 4.00765 2.82681 3.97253 2.7643 3.91002C2.70179 3.84751 2.66667 3.76272 2.66667 3.67432V2.67432H1C0.911595 2.67432 0.82681 2.70944 0.764298 2.77195C0.701786 2.83446 0.666667 2.91924 0.666667 3.00765V15.6743C0.666667 16.1163 0.842261 16.5403 1.15482 16.8528C1.46738 17.1654 1.89131 17.341 2.33333 17.341H11.6667C12.1087 17.341 12.5326 17.1654 12.8452 16.8528C13.1577 16.5403 13.3333 16.1163 13.3333 15.6743V3.00765Z" fill="#707070"/>
</svg>
