<svg width="240" height="49" viewBox="0 0 240 49" fill="none" xmlns="http://www.w3.org/2000/svg">
<path d="M134.851 0.210958V42.7914H145.325V12.1234C145.39 11.6467 145.422 11.1661 145.422 10.6849C145.425 9.28422 145.144 7.89742 144.598 6.60757C144.073 5.36307 143.311 4.23242 142.354 3.27833C141.4 2.32187 140.269 1.55968 139.025 1.03404C137.735 0.488156 136.349 0.208206 134.948 0.210958H134.851Z" fill="black"/>
<path d="M169.478 43.8037C165.986 43.7955 162.524 43.1567 159.259 41.9182C155.977 40.7099 152.931 38.9397 150.256 36.6867L156.096 29.0828C158.262 30.9246 160.679 32.4503 163.273 33.6147C165.491 34.5329 167.871 34.9982 170.271 34.9834C171.666 35.0113 173.057 34.8475 174.407 34.4966C175.388 34.2573 176.289 33.7644 177.019 33.0673C177.312 32.7769 177.544 32.4308 177.7 32.0496C177.857 31.6683 177.936 31.2595 177.932 30.8472C177.955 30.3155 177.845 29.7865 177.611 29.3083C177.377 28.8302 177.028 28.4181 176.594 28.1098C175.702 27.4611 174.181 26.9541 172.032 26.5888L162.665 24.9467C159.219 24.3383 156.563 23.0204 154.698 20.9928C152.799 18.8778 151.795 16.1082 151.898 13.2678C151.832 10.7337 152.566 8.2431 153.997 6.15077C155.514 4.07272 157.609 2.48621 160.02 1.58835C163.002 0.469332 166.172 -0.0675408 169.357 0.00678551C172.607 0.0213428 175.832 0.565868 178.907 1.61892C181.931 2.59652 184.753 4.11095 187.24 6.08963L181.703 13.8152C177.323 10.4494 172.964 8.76651 168.625 8.76651C167.383 8.74371 166.144 8.89733 164.945 9.22276C164.06 9.44452 163.245 9.88367 162.573 10.5003C162.308 10.7562 162.098 11.0637 161.957 11.4036C161.816 11.7436 161.746 12.1089 161.751 12.477C161.729 12.9495 161.825 13.4201 162.033 13.8454C162.24 14.2706 162.551 14.6367 162.937 14.9099C164.118 15.6202 165.434 16.076 166.802 16.2481L175.622 17.7079C179.718 18.3566 182.83 19.7152 184.959 21.7835C187.088 23.8519 188.152 26.5284 188.152 29.8131C188.219 32.4737 187.43 35.0856 185.902 37.2646C184.26 39.4609 182.022 41.1393 179.454 42.1004C176.269 43.3046 172.882 43.8829 169.478 43.8037Z" fill="black"/>
<path d="M230.146 43.1952V14.1826L216.156 40.1544L202.223 14.0586V33.527C202.225 34.7969 201.976 36.0546 201.489 37.2275C201.003 38.4004 200.288 39.4652 199.387 40.3603C198.492 41.2612 197.428 41.9756 196.255 42.4622C195.082 42.9488 193.824 43.1979 192.554 43.1952V0.614746H205.754L216.277 20.6871L226.801 0.614746H240V43.1952H230.146Z" fill="black"/>
<path d="M58.811 42.7905V0.0917969H80.1621C83.1359 0.0942448 86.0174 1.1244 88.3187 3.00781C90.62 4.89123 92.1996 7.51213 92.7901 10.4267C93.3805 13.3412 92.9455 16.3703 91.5587 19.0009C90.1719 21.6314 87.9185 23.7019 85.1802 24.8615C83.5928 25.5339 81.886 25.8788 80.1621 25.8755H67.674V34.3353C67.6262 36.5625 66.7179 38.6846 65.1396 40.2567C64.3374 41.0638 63.383 41.7037 62.3317 42.1394C61.2805 42.575 60.1532 42.7977 59.0152 42.7945C58.9379 42.794 58.8722 42.7928 58.811 42.7905ZM71.7035 17.0114H80.1621C80.6911 17.0114 81.215 16.9072 81.7037 16.7048C82.1924 16.5023 82.6365 16.2056 83.0106 15.8315C83.3846 15.4575 83.6814 15.0134 83.8838 14.5246C84.0862 14.0359 84.1904 13.5121 84.1904 12.9831C84.1904 12.4541 84.0862 11.9303 83.8838 11.4415C83.6814 10.9528 83.3846 10.5087 83.0106 10.1346C82.6365 9.76057 82.1924 9.46385 81.7037 9.26141C81.215 9.05897 80.6911 8.95477 80.1621 8.95477H67.674V17.0114H71.7035Z" fill="black"/>
<path d="M95.4702 42.7905V25.4741C95.47 24.363 95.6886 23.2628 96.1136 22.2362C96.5386 21.2096 97.1617 20.2768 97.9472 19.491C98.7327 18.7052 99.6653 18.0818 100.692 17.6565C101.718 17.2311 102.818 17.0121 103.929 17.012C104.062 17.012 104.197 17.0154 104.333 17.0212V17.012H116.821C117.889 17.012 118.914 16.5875 119.669 15.832C120.425 15.0765 120.849 14.0518 120.849 12.9834C120.849 11.9149 120.425 10.8902 119.669 10.1347C118.914 9.37921 117.889 8.95477 116.821 8.95477H95.4702V0.0917969H116.821C119.795 0.0935639 122.677 1.12331 124.978 3.00658C127.28 4.88986 128.86 7.51088 129.45 10.4256C130.041 13.3404 129.606 16.3697 128.219 19.0003C126.831 21.631 124.578 23.7012 121.839 24.8604C120.251 25.5323 118.545 25.8768 116.821 25.8732H104.333V34.3342H104.33C104.283 36.5615 103.374 38.684 101.796 40.2561C100.994 41.063 100.039 41.7027 98.9879 42.1383C97.9366 42.574 96.8094 42.7968 95.6715 42.794C95.5954 42.7934 95.5314 42.7928 95.4702 42.7905Z" fill="black"/>
<path d="M104.333 25.874H95.4702V29.0966H104.333V25.874Z" fill="black"/>
<path d="M104.333 4.12012H95.4702V25.8738H104.333V4.12012Z" fill="black"/>
<path d="M107.152 23.4565H118.029L130.114 42.7929H119.237L107.152 23.4565Z" fill="black"/>
<path d="M48.9754 42.483H0L24.704 0.00634766L24.7501 0.0859449L24.1445 29.4094L48.9759 42.4824L48.9754 42.483Z" fill="url(#paint0_radial_507_2919)"/>
<path d="M25.7184 0.0160556L28.8158 5.38086L25.6778 23.8757L25.7184 0.0160556Z" fill="#652F8F"/>
<path d="M50.1282 42.2946L47.0311 36.9303L29.4448 30.3999L50.1282 42.2946Z" fill="#ED1B24"/>
<path d="M29.6506 6.78493L32.2664 11.3155L26.5023 25.1199L29.6506 6.78493Z" fill="#0873BB"/>
<path d="M46.2325 35.5059L43.6168 30.9753L28.7798 29.0649L46.2325 35.5059Z" fill="#FEB415"/>
<path d="M32.8553 12.377L35.76 17.4082L27.0771 26.1616L32.8553 12.377Z" fill="#00ADEF"/>
<path d="M42.9914 29.9337L40.0864 24.902L28.1646 28.0454L42.9914 29.9337Z" fill="#FCF001"/>
<path d="M36.3379 18.4096L39.4353 23.7744L27.6066 27.1011L36.3379 18.4096Z" fill="#67BE44"/>
<defs>
<radialGradient id="paint0_radial_507_2919" cx="0" cy="0" r="1" gradientUnits="userSpaceOnUse" gradientTransform="translate(21.7308 36.5008) rotate(4.47341) scale(22.0892 22.7708)">
<stop stop-color="#DBDBDB"/>
<stop offset="1" stop-color="#B1B1B1"/>
</radialGradient>
</defs>
</svg>
