<svg width="138" height="29" viewBox="0 0 138 29" fill="none" xmlns="http://www.w3.org/2000/svg">
<path d="M77.5388 0.741711V25.2255H83.5613V7.59138C83.5988 7.31725 83.6175 7.0409 83.6174 6.76423C83.6189 5.95883 83.4578 5.16143 83.1438 4.41976C82.8415 3.70417 82.4033 3.05405 81.8533 2.50545C81.3047 1.95549 80.6546 1.51723 79.939 1.21498C79.1974 0.9011 78.4001 0.740128 77.5949 0.741711H77.5388Z" fill="white"/>
<path d="M97.4494 25.8075C95.4414 25.8027 93.4508 25.4355 91.5734 24.7233C89.6865 24.0286 87.9348 23.0107 86.397 21.7152L89.7546 17.343C91.0005 18.402 92.39 19.2793 93.8818 19.9488C95.1571 20.4768 96.5251 20.7443 97.9054 20.7358C98.7072 20.7519 99.5075 20.6577 100.284 20.4559C100.848 20.3183 101.366 20.0349 101.786 19.6341C101.954 19.4671 102.087 19.2681 102.177 19.0488C102.267 18.8296 102.313 18.5945 102.31 18.3575C102.324 18.0518 102.26 17.7476 102.126 17.4726C101.992 17.1977 101.79 16.9608 101.541 16.7835C101.028 16.4105 100.154 16.119 98.9179 15.9089L93.5322 14.9647C91.5502 14.6149 90.0231 13.8571 88.9507 12.6912C87.8589 11.4751 87.2818 9.88258 87.3412 8.24934C87.3028 6.79222 87.7251 5.36014 88.5481 4.15705C89.4204 2.96218 90.6245 2.04993 92.0109 1.53366C93.7259 0.890227 95.5484 0.581525 97.3797 0.624263C99.2483 0.632633 101.103 0.945735 102.871 1.55124C104.61 2.11336 106.233 2.98415 107.663 4.12189L104.479 8.56408C101.96 6.62876 99.4538 5.6611 96.9588 5.6611C96.2447 5.64799 95.5322 5.73632 94.8429 5.92344C94.3341 6.05096 93.8653 6.30346 93.4788 6.65806C93.3266 6.8052 93.2062 6.98196 93.125 7.17745C93.0437 7.37293 93.0034 7.58298 93.0065 7.79464C92.9935 8.06633 93.0491 8.33693 93.1683 8.58143C93.2875 8.82594 93.4663 9.03646 93.6884 9.19356C94.3674 9.60199 95.1243 9.86407 95.9105 9.963L100.982 10.8024C103.337 11.1754 105.127 11.9566 106.351 13.1459C107.575 14.3352 108.187 15.8742 108.187 17.7629C108.225 19.2927 107.772 20.7946 106.893 22.0475C105.949 23.3103 104.662 24.2755 103.186 24.8281C101.354 25.5205 99.4067 25.853 97.4494 25.8075Z" fill="white"/>
<path d="M132.334 25.4576V8.77539L124.289 23.7091L116.278 8.70409V19.8984C116.279 20.6286 116.136 21.3518 115.856 22.0262C115.576 22.7006 115.165 23.3129 114.647 23.8275C114.133 24.3455 113.521 24.7563 112.846 25.0361C112.172 25.3159 111.448 25.4592 110.718 25.4576V0.973877H118.308L124.359 12.5155L130.41 0.973877H138V25.4576H132.334Z" fill="white"/>
<path d="M33.8164 25.2248V0.673096H46.0933C47.8032 0.674503 49.46 1.26684 50.7833 2.3498C52.1065 3.43277 53.0148 4.93978 53.3543 6.61565C53.6939 8.29151 53.4437 10.0332 52.6463 11.5458C51.8489 13.0584 50.5532 14.2489 48.9787 14.9157C48.0659 15.3023 47.0845 15.5006 46.0933 15.4987H38.9126V20.3631C38.8851 21.6437 38.3628 22.8639 37.4553 23.7679C36.9941 24.232 36.4453 24.5999 35.8408 24.8504C35.2363 25.1009 34.5881 25.229 33.9338 25.2272C33.8894 25.2268 33.8516 25.2262 33.8164 25.2248ZM41.2296 10.4019H46.0933C46.3974 10.4019 46.6986 10.3419 46.9797 10.2255C47.2607 10.1091 47.516 9.93852 47.7311 9.72344C47.9462 9.50835 48.1168 9.25301 48.2332 8.97198C48.3496 8.69096 48.4095 8.38976 48.4095 8.08558C48.4095 7.7814 48.3496 7.4802 48.2332 7.19918C48.1168 6.91816 47.9462 6.66281 47.7311 6.44772C47.516 6.23264 47.2607 6.06202 46.9797 5.94562C46.6986 5.82922 46.3974 5.7693 46.0933 5.7693H38.9126V10.4019H41.2296Z" fill="white"/>
<path d="M54.8953 25.2248V15.2679C54.8951 14.629 55.0208 13.9964 55.2652 13.4061C55.5096 12.8158 55.8678 12.2794 56.3195 11.8276C56.7712 11.3758 57.3074 11.0174 57.8976 10.7728C58.4878 10.5282 59.1204 10.4023 59.7593 10.4022C59.8353 10.4022 59.9132 10.4042 59.9915 10.4075V10.4022H67.1718C67.7862 10.4022 68.3754 10.1581 68.8098 9.72372C69.2442 9.2893 69.4882 8.7001 69.4882 8.08575C69.4882 7.47139 69.2442 6.88219 68.8098 6.44777C68.3754 6.01336 67.7862 5.7693 67.1718 5.7693H54.8953V0.673096H67.1718C68.8818 0.674112 70.5389 1.26621 71.8624 2.3491C73.1859 3.43198 74.0944 4.93907 74.4339 6.61505C74.7735 8.29103 74.5232 10.0329 73.7256 11.5455C72.928 13.0581 71.632 14.2485 70.0572 14.915C69.1444 15.3014 68.163 15.4995 67.1718 15.4974H59.9911V20.3624H59.9895C59.9623 21.6432 59.4402 22.8636 58.5325 23.7675C58.0712 24.2315 57.5224 24.5994 56.9179 24.8498C56.3134 25.1003 55.6653 25.2285 55.011 25.2268C54.9672 25.2265 54.9304 25.2262 54.8953 25.2248Z" fill="white"/>
<path d="M59.9911 15.4978H54.8953V17.3508H59.9911V15.4978Z" fill="white"/>
<path d="M59.9911 2.98926H54.8953V15.4976H59.9911V2.98926Z" fill="white"/>
<path d="M61.6123 14.1077H67.8663L74.8151 25.2261H68.5611L61.6123 14.1077Z" fill="white"/>
<path d="M28.1608 25.0481H0L14.2048 0.624023L14.2313 0.669792L13.8831 17.5308L28.1611 25.0477L28.1608 25.0481Z" fill="url(#paint0_radial_596_14931)"/>
<path d="M14.7882 0.629657L16.5692 3.71442L14.7649 14.3489L14.7882 0.629657Z" fill="#652F8F"/>
<path d="M28.8238 24.9398L27.043 21.8553L16.9309 18.1003L28.8238 24.9398Z" fill="#ED1B24"/>
<path d="M17.0493 4.52188L18.5533 7.12698L15.239 15.0645L17.0493 4.52188Z" fill="#0873BB"/>
<path d="M26.5834 21.0363L25.0794 18.4312L16.5481 17.3328L26.5834 21.0363Z" fill="#FEB415"/>
<path d="M18.8915 7.73728L20.5617 10.6302L15.569 15.6634L18.8915 7.73728Z" fill="#00ADEF"/>
<path d="M24.7203 17.8321L23.0499 14.9389L16.1948 16.7463L24.7203 17.8321Z" fill="#FCF001"/>
<path d="M20.8942 11.2058L22.6752 14.2906L15.8737 16.2034L20.8942 11.2058Z" fill="#67BE44"/>
<defs>
<radialGradient id="paint0_radial_596_14931" cx="0" cy="0" r="1" gradientUnits="userSpaceOnUse" gradientTransform="translate(12.4952 21.6083) rotate(4.47341) scale(12.7013 13.0932)">
<stop stop-color="#DBDBDB"/>
<stop offset="1" stop-color="#B1B1B1"/>
</radialGradient>
</defs>
</svg>
