<svg width="22" height="25" viewBox="0 0 22 25" fill="none" xmlns="http://www.w3.org/2000/svg">
<path d="M21.5001 19.3552C21.4991 18.793 21.3002 18.2487 20.9376 17.8156C20.5749 17.3826 20.0711 17.0877 19.5126 16.9817C18.1586 15.0787 17.4284 12.8106 17.4208 10.484V8.87111C17.419 7.58689 17.0299 6.33235 16.3033 5.26776C15.5767 4.20317 14.5455 3.37686 13.3415 2.8944V2.41939C13.3415 1.77773 13.0836 1.16235 12.6246 0.708624C12.1656 0.254899 11.543 0 10.8939 0C10.2448 0 9.62222 0.254899 9.16321 0.708624C8.7042 1.16235 8.44633 1.77773 8.44633 2.41939V2.8944C7.24231 3.37686 6.21113 4.20317 5.48451 5.26776C4.7579 6.33235 4.36884 7.58689 4.36704 8.87111V10.484C4.35944 12.8106 3.62924 15.0787 2.27518 16.9817C1.67706 17.0947 1.14307 17.4241 0.777611 17.9055C0.412151 18.387 0.241503 18.9859 0.299032 19.5851C0.356562 20.1843 0.638133 20.7408 1.08869 21.1457C1.53925 21.5506 2.12639 21.7748 2.73532 21.7745H6.89712C7.08525 22.6851 7.5858 23.5035 8.3141 24.0912C9.0424 24.679 9.95372 25 10.8939 25C11.8341 25 12.7454 24.679 13.4737 24.0912C14.202 23.5035 14.7026 22.6851 14.8907 21.7745H19.0525C19.7014 21.7738 20.3235 21.5187 20.7824 21.0651C21.2412 20.6116 21.4993 19.9966 21.5001 19.3552ZM10.078 2.41939C10.078 2.20551 10.164 2.00038 10.317 1.84914C10.47 1.6979 10.6775 1.61293 10.8939 1.61293C11.1103 1.61293 11.3178 1.6979 11.4708 1.84914C11.6238 2.00038 11.7098 2.20551 11.7098 2.41939V2.47544C11.1685 2.40071 10.6193 2.40071 10.078 2.47544V2.41939ZM1.91946 19.3552C1.91968 19.1413 2.0057 18.9363 2.15866 18.7851C2.31162 18.6339 2.51901 18.5489 2.73532 18.5487H5.99875C6.21513 18.5487 6.42265 18.4637 6.57565 18.3125C6.72866 18.1612 6.81461 17.9561 6.81461 17.7422C6.81461 17.5283 6.72866 17.3232 6.57565 17.172C6.42265 17.0207 6.21513 16.9358 5.99875 16.9358H4.23558C5.38264 14.9741 5.99049 12.7498 5.99875 10.484V8.87111C5.99875 7.58778 6.51449 6.35702 7.43251 5.44957C8.35053 4.54212 9.59563 4.03232 10.8939 4.03232C12.1922 4.03232 13.4373 4.54212 14.3553 5.44957C15.2733 6.35702 15.7891 7.58778 15.7891 8.87111V10.484C15.7973 12.7498 16.4052 14.9741 17.5522 16.9358H9.26219C9.04581 16.9358 8.83829 17.0207 8.68529 17.172C8.53229 17.3232 8.44633 17.5283 8.44633 17.7422C8.44633 17.9561 8.53229 18.1612 8.68529 18.3125C8.83829 18.4637 9.04581 18.5487 9.26219 18.5487H19.0525C19.2689 18.5487 19.4764 18.6337 19.6294 18.7849C19.7824 18.9361 19.8684 19.1413 19.8684 19.3552C19.8684 19.569 19.7824 19.7742 19.6294 19.9254C19.4764 20.0766 19.2689 20.1616 19.0525 20.1616H2.73532C2.51901 20.1614 2.31162 20.0764 2.15866 19.9252C2.0057 19.774 1.91968 19.569 1.91946 19.3552ZM10.8939 23.3875C10.3894 23.3859 9.89774 23.2301 9.48644 22.9413C9.07513 22.6525 8.76435 22.2449 8.59676 21.7745H13.1912C13.0236 22.2449 12.7127 22.6525 12.3014 22.9413C11.8901 23.2301 11.3984 23.386 10.8939 23.3875Z" fill="#769EB0"/>
</svg>
