<svg width="14" height="16" viewBox="0 0 14 16" fill="none" xmlns="http://www.w3.org/2000/svg">
<path d="M6.99975 0.737305C7.91483 0.737025 8.80591 1.03008 9.54219 1.57347C10.2785 2.11686 10.8212 2.88195 11.0907 3.75645C11.3601 4.63096 11.3422 5.56882 11.0395 6.43238C10.7367 7.29593 10.1652 8.03971 9.40865 8.55454C10.7218 9.03616 11.8607 9.89976 12.6788 11.0342C13.4969 12.1686 13.9568 13.5219 13.9992 14.9199C14.0032 14.9975 13.9916 15.0751 13.9652 15.1482C13.9388 15.2212 13.898 15.2883 13.8453 15.3454C13.7926 15.4025 13.7291 15.4485 13.6584 15.4807C13.5877 15.513 13.5112 15.5307 13.4336 15.533C13.3559 15.5353 13.2786 15.522 13.2061 15.494C13.1336 15.466 13.0675 15.4238 13.0115 15.3699C12.9556 15.316 12.9109 15.2514 12.8803 15.18C12.8496 15.1086 12.8335 15.0318 12.8329 14.9541C12.7866 13.438 12.1518 11.9996 11.063 10.9435C9.97415 9.88749 8.51694 9.2969 7.00014 9.2969C5.48334 9.2969 4.02613 9.88749 2.93733 10.9435C1.84853 11.9996 1.2137 13.438 1.16736 14.9541C1.16272 15.1089 1.09679 15.2555 0.984066 15.3616C0.871346 15.4678 0.721073 15.5248 0.566306 15.5202C0.411539 15.5155 0.264956 15.4496 0.158802 15.3369C0.0526481 15.2242 -0.00438017 15.0739 0.00026284 14.9191C0.0428605 13.5213 0.502812 12.1681 1.32092 11.0339C2.13903 9.89959 3.27787 9.03611 4.59086 8.55454C3.83433 8.03971 3.26276 7.29593 2.96003 6.43238C2.6573 5.56882 2.63936 4.63096 2.90884 3.75645C3.17832 2.88195 3.72103 2.11686 4.45731 1.57347C5.19359 1.03008 6.08467 0.737025 6.99975 0.737305ZM3.88748 5.01667C3.88748 5.8421 4.21538 6.63371 4.79905 7.21738C5.38271 7.80104 6.17433 8.12894 6.99975 8.12894C7.82518 8.12894 8.61679 7.80104 9.20046 7.21738C9.78412 6.63371 10.112 5.8421 10.112 5.01667C10.112 4.19125 9.78412 3.39963 9.20046 2.81597C8.61679 2.2323 7.82518 1.9044 6.99975 1.9044C6.17433 1.9044 5.38271 2.2323 4.79905 2.81597C4.21538 3.39963 3.88748 4.19125 3.88748 5.01667Z" fill="#707070"/>
</svg>
