<svg width="14" height="16" viewBox="0 0 14 16" fill="none" xmlns="http://www.w3.org/2000/svg">
<path d="M13.5004 4.05964L7.46118 0.753164C7.31998 0.675181 7.1613 0.634277 7 0.634277C6.8387 0.634277 6.68003 0.675181 6.53882 0.753164L0.499608 4.05964C0.348494 4.14232 0.222388 4.26411 0.134492 4.41225C0.0465966 4.56039 0.000144713 4.72944 0 4.90169V11.4652C0.000144713 11.6375 0.0465966 11.8065 0.134492 11.9547C0.222388 12.1028 0.348494 12.2246 0.499608 12.3073L6.53882 15.6138C6.68007 15.6916 6.83872 15.7324 7 15.7324C7.16128 15.7324 7.31994 15.6916 7.46118 15.6138L13.5004 12.3073C13.6515 12.2246 13.7776 12.1028 13.8655 11.9547C13.9534 11.8065 13.9999 11.6375 14 11.4652V4.90169C13.9999 4.72944 13.9534 4.56039 13.8655 4.41225C13.7776 4.26411 13.6515 4.14232 13.5004 4.05964ZM6.93137 1.47513C6.95157 1.46407 6.97423 1.45828 6.99726 1.45828C7.02028 1.45828 7.04294 1.46407 7.06314 1.47513L12.7997 4.61483L10.4705 5.88924L4.6701 2.71454L6.93137 1.47513ZM6.58824 14.7031L0.892157 11.5853C0.87111 11.5732 0.853666 11.5557 0.841608 11.5345C0.829551 11.5134 0.823312 11.4895 0.823529 11.4652V5.3464L6.58824 8.50326V14.7031ZM1.20029 4.61483L3.81294 3.18395L9.61265 6.35865L7 7.78816L1.20029 4.61483ZM13.1765 11.4652C13.1767 11.4895 13.1705 11.5134 13.1584 11.5345C13.1463 11.5557 13.1289 11.5732 13.1078 11.5853L7.41177 14.7031V8.50189L9.88235 7.14924V9.83052C9.88235 9.93972 9.92574 10.0445 10.003 10.1217C10.0802 10.1989 10.1849 10.2423 10.2941 10.2423C10.4033 10.2423 10.5081 10.1989 10.5853 10.1217C10.6625 10.0445 10.7059 9.93972 10.7059 9.83052V6.69905L13.1765 5.3464V11.4652Z" fill="#707070"/>
</svg>
