<svg width="25" height="25" viewBox="0 0 25 25" fill="none" xmlns="http://www.w3.org/2000/svg">
<circle cx="12.5" cy="12.5" r="12.5" fill="#00ADEF" fill-opacity="0.24"/>
<path d="M12.5 5.69995C11.155 5.69995 9.84033 6.09876 8.72208 6.84596C7.60382 7.59315 6.73225 8.65517 6.21757 9.8977C5.7029 11.1402 5.56823 12.5075 5.83061 13.8266C6.09299 15.1456 6.74063 16.3573 7.69163 17.3083C8.64262 18.2593 9.85427 18.9069 11.1733 19.1693C12.4924 19.4317 13.8597 19.297 15.1022 18.7823C16.3447 18.2677 17.4068 17.3961 18.1539 16.2778C18.9011 15.1596 19.3 13.8449 19.3 12.4999C19.3 10.6965 18.5835 8.96687 17.3083 7.69162C16.033 6.41638 14.3034 5.69995 12.5 5.69995ZM13.5378 11.0684H13.9315C14.0265 11.0684 14.1175 11.1061 14.1846 11.1732C14.2517 11.2403 14.2894 11.3313 14.2894 11.4263C14.2894 11.5212 14.2517 11.6122 14.1846 11.6793C14.1175 11.7465 14.0265 11.7842 13.9315 11.7842H13.5307C13.4544 12.1648 13.2563 12.5103 12.9665 12.7685C12.6766 13.0268 12.3106 13.1837 11.9237 13.2157L13.4698 14.769C13.5034 14.8023 13.53 14.8419 13.5482 14.8855C13.5664 14.9291 13.5757 14.9759 13.5757 15.0231C13.5757 15.0704 13.5664 15.1171 13.5482 15.1607C13.53 15.2044 13.5034 15.2439 13.4698 15.2772C13.3995 15.3377 13.3084 15.3685 13.2157 15.3631C13.1686 15.3634 13.1219 15.3544 13.0783 15.3365C13.0347 15.3187 12.9951 15.2925 12.9616 15.2593L10.8143 13.1119C10.7638 13.0619 10.7294 12.9979 10.7154 12.9282C10.7014 12.8585 10.7085 12.7863 10.7358 12.7206C10.763 12.6549 10.8092 12.5989 10.8685 12.5596C10.9277 12.5203 10.9973 12.4995 11.0684 12.4999H11.7842C12.0075 12.5016 12.2258 12.4335 12.4086 12.3052C12.5915 12.1769 12.7297 11.9947 12.8042 11.7842H11.0684C10.9735 11.7842 10.8824 11.7465 10.8153 11.6793C10.7482 11.6122 10.7105 11.5212 10.7105 11.4263C10.7105 11.3313 10.7482 11.2403 10.8153 11.1732C10.8824 11.1061 10.9735 11.0684 11.0684 11.0684H12.797C12.723 10.8589 12.5858 10.6776 12.4044 10.5494C12.223 10.4212 12.0063 10.3525 11.7842 10.3526H11.0684C10.9735 10.3526 10.8824 10.3149 10.8153 10.2478C10.7482 10.1806 10.7105 10.0896 10.7105 9.99469C10.7105 9.89977 10.7482 9.80873 10.8153 9.74162C10.8824 9.6745 10.9735 9.63679 11.0684 9.63679H13.9315C14.0265 9.63679 14.1175 9.6745 14.1846 9.74162C14.2517 9.80873 14.2894 9.89977 14.2894 9.99469C14.2894 10.0896 14.2517 10.1806 14.1846 10.2478C14.1175 10.3149 14.0265 10.3526 13.9315 10.3526H13.2157C13.3781 10.5624 13.4884 10.8077 13.5378 11.0684Z" fill="#00ADEF"/>
<path d="M12.5 21C10.8189 21 9.17547 20.5015 7.77766 19.5675C6.37984 18.6335 5.29037 17.306 4.64703 15.7528C4.00368 14.1996 3.83535 12.4906 4.16333 10.8417C4.4913 9.1929 5.30085 7.67834 6.4896 6.4896C7.67834 5.30085 9.1929 4.4913 10.8417 4.16333C12.4906 3.83535 14.1996 4.00368 15.7528 4.64703C17.306 5.29037 18.6335 6.37984 19.5675 7.77766C20.5015 9.17547 21 10.8189 21 12.5C21 14.7543 20.1045 16.9163 18.5104 18.5104C16.9163 20.1045 14.7543 21 12.5 21ZM12.5 4.70834C10.959 4.70834 9.45252 5.16531 8.17119 6.02147C6.88985 6.87763 5.89117 8.09452 5.30144 9.51826C4.71171 10.942 4.55741 12.5086 4.85805 14.0201C5.15869 15.5315 5.90078 16.9199 6.99046 18.0095C8.08015 19.0992 9.46849 19.8413 10.9799 20.142C12.4914 20.4426 14.058 20.2883 15.4817 19.6986C16.9055 19.1088 18.1224 18.1102 18.9785 16.8288C19.8347 15.5475 20.2917 14.041 20.2917 12.5C20.2917 10.4335 19.4708 8.45168 18.0095 6.99046C16.5483 5.52924 14.5665 4.70834 12.5 4.70834Z" fill="#00ADEF"/>
</svg>
