<svg width="14" height="19" viewBox="0 0 14 19" fill="none" xmlns="http://www.w3.org/2000/svg">
<path d="M3.20833 5.25C3.4404 5.25 3.66296 5.15781 3.82705 4.99372C3.99115 4.82962 4.08333 4.60706 4.08333 4.375C4.08333 4.14294 3.99115 3.92038 3.82705 3.75628C3.66296 3.59219 3.4404 3.5 3.20833 3.5C2.97627 3.5 2.75371 3.59219 2.58961 3.75628C2.42552 3.92038 2.33333 4.14294 2.33333 4.375C2.33333 4.60706 2.42552 4.82962 2.58961 4.99372C2.75371 5.15781 2.97627 5.25 3.20833 5.25ZM4.08333 7.875C4.08333 8.10706 3.99115 8.32962 3.82705 8.49372C3.66296 8.65781 3.4404 8.75 3.20833 8.75C2.97627 8.75 2.75371 8.65781 2.58961 8.49372C2.42552 8.32962 2.33333 8.10706 2.33333 7.875C2.33333 7.64294 2.42552 7.42038 2.58961 7.25628C2.75371 7.09219 2.97627 7 3.20833 7C3.4404 7 3.66296 7.09219 3.82705 7.25628C3.99115 7.42038 4.08333 7.64294 4.08333 7.875ZM3.20833 12.25C3.32324 12.25 3.43702 12.2274 3.54318 12.1834C3.64934 12.1394 3.7458 12.075 3.82705 11.9937C3.9083 11.9125 3.97275 11.816 4.01673 11.7098C4.0607 11.6037 4.08333 11.4899 4.08333 11.375C4.08333 11.2601 4.0607 11.1463 4.01673 11.0402C3.97275 10.934 3.9083 10.8375 3.82705 10.7563C3.7458 10.675 3.64934 10.6106 3.54318 10.5666C3.43702 10.5226 3.32324 10.5 3.20833 10.5C2.97627 10.5 2.75371 10.5922 2.58961 10.7563C2.42552 10.9204 2.33333 11.1429 2.33333 11.375C2.33333 11.6071 2.42552 11.8296 2.58961 11.9937C2.75371 12.1578 2.97627 12.25 3.20833 12.25ZM7.58333 4.375C7.58333 4.60706 7.49115 4.82962 7.32705 4.99372C7.16296 5.15781 6.9404 5.25 6.70833 5.25C6.47627 5.25 6.25371 5.15781 6.08962 4.99372C5.92552 4.82962 5.83333 4.60706 5.83333 4.375C5.83333 4.14294 5.92552 3.92038 6.08962 3.75628C6.25371 3.59219 6.47627 3.5 6.70833 3.5C6.9404 3.5 7.16296 3.59219 7.32705 3.75628C7.49115 3.92038 7.58333 4.14294 7.58333 4.375ZM6.70833 8.75C6.9404 8.75 7.16296 8.65781 7.32705 8.49372C7.49115 8.32962 7.58333 8.10706 7.58333 7.875C7.58333 7.64294 7.49115 7.42038 7.32705 7.25628C7.16296 7.09219 6.9404 7 6.70833 7C6.47627 7 6.25371 7.09219 6.08962 7.25628C5.92552 7.42038 5.83333 7.64294 5.83333 7.875C5.83333 8.10706 5.92552 8.32962 6.08962 8.49372C6.25371 8.65781 6.47627 8.75 6.70833 8.75ZM7.58333 11.375C7.58333 11.6071 7.49115 11.8296 7.32705 11.9937C7.16296 12.1578 6.9404 12.25 6.70833 12.25C6.47627 12.25 6.25371 12.1578 6.08962 11.9937C5.92552 11.8296 5.83333 11.6071 5.83333 11.375C5.83333 11.1429 5.92552 10.9204 6.08962 10.7563C6.25371 10.5922 6.47627 10.5 6.70833 10.5C6.9404 10.5 7.16296 10.5922 7.32705 10.7563C7.49115 10.9204 7.58333 11.1429 7.58333 11.375ZM10.2083 12.25C10.3232 12.25 10.437 12.2274 10.5432 12.1834C10.6493 12.1394 10.7458 12.075 10.8271 11.9937C10.9083 11.9125 10.9728 11.816 11.0167 11.7098C11.0607 11.6037 11.0833 11.4899 11.0833 11.375C11.0833 11.2601 11.0607 11.1463 11.0167 11.0402C10.9728 10.934 10.9083 10.8375 10.8271 10.7563C10.7458 10.675 10.6493 10.6106 10.5432 10.5666C10.437 10.5226 10.3232 10.5 10.2083 10.5C9.97627 10.5 9.75371 10.5922 9.58961 10.7563C9.42552 10.9204 9.33333 11.1429 9.33333 11.375C9.33333 11.6071 9.42552 11.8296 9.58961 11.9937C9.75371 12.1578 9.97627 12.25 10.2083 12.25ZM0.583333 18.6667C0.428624 18.6667 0.280251 18.6052 0.170854 18.4958C0.0614583 18.3864 0 18.238 0 18.0833V1.75C0 1.28587 0.184374 0.840752 0.512563 0.512563C0.840752 0.184375 1.28587 0 1.75 0H8.75C9.21413 0 9.65925 0.184375 9.98744 0.512563C10.3156 0.840752 10.5 1.28587 10.5 1.75V7H12.25C12.7141 7 13.1592 7.18437 13.4874 7.51256C13.8156 7.84075 14 8.28587 14 8.75V18.0833C14 18.238 13.9385 18.3864 13.8291 18.4958C13.7197 18.6052 13.5714 18.6667 13.4167 18.6667H0.583333ZM1.16667 1.75V17.5H3.5V14.5833C3.5 14.4286 3.56146 14.2802 3.67085 14.1709C3.78025 14.0615 3.92862 14 4.08333 14H9.91667C10.0714 14 10.2197 14.0615 10.3291 14.1709C10.4385 14.2802 10.5 14.4286 10.5 14.5833V17.5H12.8333V8.75C12.8333 8.59529 12.7719 8.44692 12.6625 8.33752C12.5531 8.22812 12.4047 8.16667 12.25 8.16667H9.91667C9.76196 8.16667 9.61358 8.10521 9.50419 7.99581C9.39479 7.88642 9.33333 7.73804 9.33333 7.58333V1.75C9.33333 1.59529 9.27188 1.44692 9.16248 1.33752C9.05308 1.22812 8.90471 1.16667 8.75 1.16667H1.75C1.59529 1.16667 1.44692 1.22812 1.33752 1.33752C1.22812 1.44692 1.16667 1.59529 1.16667 1.75ZM9.33333 15.1667H7.58333V17.5H9.33333V15.1667ZM6.41667 15.1667H4.66667V17.5H6.41667V15.1667Z" fill="#707070"/>
</svg>
