<svg width="30" height="30" viewBox="0 0 30 30" fill="none" xmlns="http://www.w3.org/2000/svg">
<circle opacity="0.05" cx="15" cy="15" r="15" fill="#707070"/>
<path fill-rule="evenodd" clip-rule="evenodd" d="M18.8355 11.6575C19.0343 11.6575 19.1999 11.8226 19.1999 12.0327V12.2269C19.1999 12.4318 19.0343 12.602 18.8355 12.602H10.3647C10.1654 12.602 9.99988 12.4318 9.99988 12.2269V12.0327C9.99988 11.8226 10.1654 11.6575 10.3647 11.6575H11.855C12.1577 11.6575 12.4212 11.4423 12.4893 11.1387L12.5673 10.7902C12.6886 10.3154 13.0878 10 13.5446 10H15.6552C16.107 10 16.5107 10.3154 16.6275 10.7651L16.711 11.1382C16.7786 11.4423 17.042 11.6575 17.3453 11.6575H18.8355ZM18.0779 18.7573C18.2335 17.3073 18.5059 13.8624 18.5059 13.8276C18.5158 13.7224 18.4815 13.6227 18.4134 13.5425C18.3404 13.4673 18.2479 13.4229 18.146 13.4229H11.0566C10.9542 13.4229 10.8568 13.4673 10.7892 13.5425C10.7206 13.6227 10.6868 13.7224 10.6918 13.8276C10.6927 13.834 10.7025 13.9554 10.7188 14.1582C10.7914 15.0595 10.9936 17.5695 11.1242 18.7573C11.2167 19.6323 11.7908 20.1822 12.6224 20.2022C13.2642 20.217 13.9253 20.2221 14.6013 20.2221C15.2381 20.2221 15.8848 20.217 16.5464 20.2022C17.4068 20.1873 17.9805 19.6471 18.0779 18.7573Z" fill="#707070"/>
</svg>
