<svg width="14" height="13" viewBox="0 0 14 13" fill="none" xmlns="http://www.w3.org/2000/svg">
<path d="M0.4375 7.8418C0.553532 7.8418 0.664812 7.88789 0.746859 7.96994C0.828906 8.05199 0.875 8.16326 0.875 8.2793V10.4668C0.875 10.6989 0.967187 10.9214 1.13128 11.0855C1.29538 11.2496 1.51794 11.3418 1.75 11.3418H12.25C12.4821 11.3418 12.7046 11.2496 12.8687 11.0855C13.0328 10.9214 13.125 10.6989 13.125 10.4668V8.2793C13.125 8.16326 13.1711 8.05199 13.2531 7.96994C13.3352 7.88789 13.4465 7.8418 13.5625 7.8418C13.6785 7.8418 13.7898 7.88789 13.8719 7.96994C13.9539 8.05199 14 8.16326 14 8.2793V10.4668C14 10.9309 13.8156 11.376 13.4874 11.7042C13.1592 12.0324 12.7141 12.2168 12.25 12.2168H1.75C1.28587 12.2168 0.840752 12.0324 0.512563 11.7042C0.184374 11.376 0 10.9309 0 10.4668V8.2793C0 8.16326 0.0460936 8.05199 0.128141 7.96994C0.210188 7.88789 0.321468 7.8418 0.4375 7.8418Z" fill="#707070"/>
<path d="M6.6908 0.182243C6.73144 0.1415 6.77972 0.109175 6.83287 0.0871195C6.88603 0.0650639 6.94301 0.0537109 7.00055 0.0537109C7.0581 0.0537109 7.11508 0.0650639 7.16823 0.0871195C7.22138 0.109175 7.26966 0.1415 7.3103 0.182243L9.9353 2.80724C10.0175 2.88939 10.0636 3.00081 10.0636 3.11699C10.0636 3.23317 10.0175 3.34459 9.9353 3.42674C9.85315 3.50889 9.74173 3.55505 9.62555 3.55505C9.50937 3.55505 9.39795 3.50889 9.3158 3.42674L7.43805 1.54812V9.24199C7.43805 9.35802 7.39196 9.46931 7.30991 9.55135C7.22787 9.6334 7.11659 9.67949 7.00055 9.67949C6.88452 9.67949 6.77324 9.6334 6.69119 9.55135C6.60915 9.46931 6.56305 9.35802 6.56305 9.24199V1.54812L4.6853 3.42674C4.64463 3.46742 4.59634 3.49969 4.54319 3.5217C4.49004 3.54372 4.43308 3.55505 4.37555 3.55505C4.31803 3.55505 4.26106 3.54372 4.20792 3.5217C4.15477 3.49969 4.10648 3.46742 4.0658 3.42674C4.02513 3.38607 3.99286 3.33778 3.97084 3.28463C3.94883 3.23148 3.9375 3.17452 3.9375 3.11699C3.9375 3.05947 3.94883 3.0025 3.97084 2.94936C3.99286 2.89621 4.02513 2.84792 4.0658 2.80724L6.6908 0.182243Z" fill="#707070"/>
</svg>
